<svg width="810" height="810" viewBox="0 0 810 810" fill="none" xmlns="http://www.w3.org/2000/svg">
<g filter="url(#filter0_d_42_2)">
<path d="M735.952 359.088C735.952 372.816 735.114 386.3 733.473 399.541H733.455C723.904 360.663 709.657 323.848 691.446 289.809C643.885 200.971 569.139 131.036 479.412 93.1149C431.467 72.8415 379.227 61.7015 324.577 61.7015C272.808 61.7015 223.222 71.6975 177.372 89.9829C129.077 109.244 84.9383 137.712 46.8406 173.383C84.2748 105.643 146.851 54.5561 218.682 25.7308C225.404 23.0302 239.215 18.3979 239.215 18.3979C257.618 12.4153 276.597 7.82052 296.012 4.70732C315.445 1.61287 335.315 0 355.533 0C407.931 0 457.971 10.7837 503.839 30.4194C526.187 39.9653 547.576 51.6117 567.742 65.1523C567.742 65.1523 567.742 65.171 567.76 65.171H567.777C608.302 92.3834 643.973 127.135 673.061 167.607C677.216 173.383 681.25 179.253 685.108 185.273C685.318 185.573 685.51 185.892 685.719 186.211L685.65 186.248C701.346 210.554 713.83 237.391 722.438 266.104C729.527 289.772 733.979 314.734 735.446 340.558C735.777 346.672 735.952 352.861 735.952 359.088Z" fill="url(#paint0_linear_42_2)"/>
<path d="M597.982 473.901C597.982 475.42 597.965 476.958 597.93 478.458C597.93 478.665 597.93 478.833 597.93 479.021V479.227C597.895 480.709 597.842 482.172 597.773 483.653V483.728C597.738 484.516 597.703 485.304 597.65 486.091V486.129C597.65 486.316 597.65 486.504 597.633 486.691C597.615 486.879 597.615 487.085 597.598 487.273C597.58 487.592 597.546 487.91 597.528 488.248C597.458 489.505 597.371 490.761 597.266 492.018C597.161 493.405 597.039 494.793 596.9 496.162C596.9 496.2 596.9 496.219 596.882 496.256C596.777 497.381 596.655 498.507 596.533 499.613C596.498 499.838 596.481 500.063 596.446 500.288C596.376 501.038 596.271 501.77 596.166 502.501C596.044 503.551 595.904 504.602 595.765 505.652C595.712 505.99 595.66 506.327 595.607 506.665C595.59 506.758 595.59 506.833 595.573 506.927C595.363 508.334 595.136 509.759 594.909 511.166C594.892 511.259 594.874 511.372 594.857 511.466C594.56 513.172 594.263 514.879 593.931 516.567C589.584 510.491 585.062 504.602 580.347 498.882C569.33 485.566 557.318 473.207 544.415 462.011C543.018 460.811 541.639 459.61 540.259 458.373C525.244 444.982 511.555 429.941 499.42 413.531C485.557 394.814 473.754 374.335 464.291 352.411C457.062 335.72 451.213 318.166 446.901 299.974C446.691 299.018 446.429 298.005 446.202 297.011C443.112 284.07 438.502 271.768 432.653 260.309C432.025 259.09 431.396 257.871 430.75 256.689C404.944 209.26 356.999 177.378 302.088 177.378C263.099 177.378 227.638 193.45 201.081 219.781C171.679 248.944 153.276 290.691 153.276 337.032C153.276 352.505 155.319 367.452 159.143 381.593C159.335 382.305 159.527 383.037 159.754 383.749C160.382 386.019 161.081 388.25 161.814 390.463C165.131 400.497 169.357 410.043 174.42 419.007C146.641 372.178 130.561 316.609 130.561 256.971C130.561 197.332 147.794 137.825 177.388 89.9827C223.238 71.6973 272.825 61.7013 324.593 61.7013C379.243 61.7013 431.484 72.8413 479.429 93.1147C528.16 140.263 564.93 202.527 573.713 275.969C573.346 276.287 569.522 279.532 569.156 279.851C568.772 280.188 568.405 280.526 568.038 280.863C567.462 281.389 566.903 281.932 566.345 282.458C566.187 282.608 566.048 282.758 565.908 282.889C565.384 283.395 564.86 283.939 564.337 284.464C563.708 285.102 563.097 285.74 562.503 286.415C562.329 286.602 562.154 286.79 561.98 286.977C561.805 287.165 561.63 287.352 561.473 287.54C561.124 287.915 560.792 288.309 560.461 288.703C559.989 289.228 559.553 289.753 559.116 290.278C558.68 290.803 558.243 291.328 557.824 291.872C557.283 292.547 556.759 293.241 556.253 293.935C556.078 294.179 555.903 294.423 555.729 294.648C555.153 295.417 554.611 296.204 554.07 296.992C553.861 297.311 553.669 297.611 553.459 297.911C552.988 298.643 552.516 299.374 552.045 300.124C551.713 300.649 551.399 301.174 551.085 301.718C550.91 302 550.753 302.3 550.596 302.581C550.177 303.275 549.793 304.006 549.408 304.719C549.356 304.794 549.321 304.869 549.286 304.944C549.007 305.469 548.745 305.975 548.483 306.501C548.396 306.688 548.291 306.876 548.204 307.063C547.82 307.851 547.435 308.639 547.086 309.445C546.912 309.82 546.737 310.214 546.58 310.589C546.44 310.927 546.283 311.264 546.143 311.602C545.899 312.164 545.672 312.727 545.462 313.308C545.131 314.171 544.799 315.034 544.502 315.915C544.485 315.953 544.467 315.99 544.467 316.028C544.31 316.478 544.153 316.928 544.013 317.378C543.839 317.903 543.664 318.447 543.507 318.991C543.123 320.285 542.774 321.598 542.459 322.911C542.355 323.248 542.285 323.586 542.215 323.923C542.075 324.486 541.97 325.03 541.848 325.592C541.726 326.136 541.639 326.718 541.534 327.28C541.447 327.805 541.359 328.331 541.272 328.856C541.028 330.45 540.818 332.025 540.678 333.638C540.626 334.182 540.609 334.707 540.556 335.251C540.486 336.32 540.451 337.408 540.416 338.495C540.399 339.02 540.399 339.564 540.399 340.108C540.399 340.915 540.416 341.721 540.451 342.527C540.469 342.602 540.469 342.677 540.469 342.753C540.451 342.828 540.469 342.903 540.469 342.959C540.486 343.615 540.539 344.272 540.591 344.928C540.609 344.966 540.609 345.022 540.609 345.059C540.609 345.228 540.626 345.397 540.643 345.547C540.643 345.753 540.678 345.959 540.696 346.166C540.696 346.203 540.713 346.26 540.713 346.297C540.766 346.935 540.835 347.554 540.923 348.173C540.94 348.248 540.94 348.341 540.958 348.416C541.063 349.26 541.202 350.104 541.342 350.948C541.377 351.098 541.394 351.267 541.429 351.417C541.569 352.148 541.709 352.861 541.866 353.592C542.197 355.149 542.582 356.706 543.035 358.244C543.07 358.356 543.105 358.469 543.14 358.581C543.245 358.956 543.367 359.331 543.489 359.706C543.524 359.8 543.542 359.894 543.577 359.988C543.769 360.607 543.978 361.225 544.188 361.826C544.432 362.538 544.694 363.232 544.956 363.926C545.113 364.32 545.253 364.695 545.41 365.07C545.672 365.727 545.934 366.364 546.231 367.021C546.597 367.864 546.981 368.727 547.4 369.571C547.785 370.396 548.204 371.24 548.64 372.065C548.658 372.084 548.675 372.103 548.675 372.122C549.112 372.947 549.548 373.753 550.019 374.578C550.473 375.404 550.962 376.21 551.451 377.017C551.975 377.879 552.516 378.723 553.075 379.567C553.564 380.317 554.088 381.067 554.611 381.818C555.048 382.455 555.502 383.074 555.973 383.693C556.288 384.124 556.602 384.556 556.934 384.968C557.3 385.475 557.702 385.962 558.086 386.45C558.523 387.013 558.976 387.575 559.448 388.119C560.042 388.832 560.635 389.544 561.264 390.238C561.665 390.688 562.084 391.157 562.486 391.607C562.905 392.076 563.324 392.526 563.743 392.976C563.778 393.014 563.83 393.051 563.865 393.108C564.354 393.633 564.86 394.158 565.384 394.683C565.786 395.077 566.205 395.49 566.624 395.902C567.462 396.746 568.335 397.571 569.225 398.378C570.151 399.24 571.111 400.103 572.071 400.928C572.979 401.716 573.887 402.485 574.83 403.235C574.9 403.272 574.952 403.329 575.022 403.385C575.581 403.854 576.14 404.285 576.698 404.717C577.659 405.485 578.619 406.217 579.614 406.93C580.54 407.623 581.482 408.28 582.443 408.955C582.966 409.311 583.49 409.668 584.014 410.005C584.782 410.53 585.551 411.037 586.336 411.524C587.454 412.256 588.606 412.95 589.741 413.644C589.741 413.662 589.776 413.662 589.793 413.681C589.811 413.756 589.846 413.831 589.863 413.906C589.985 414.319 590.09 414.731 590.195 415.181C590.823 417.526 591.417 419.87 591.993 422.252C592.831 425.796 593.582 429.378 594.246 432.998C594.63 435.005 594.979 437.011 595.276 439.037C595.555 440.687 595.8 442.319 596.009 443.969C597.319 453.759 598 463.736 598 473.901H597.982Z" fill="url(#paint1_linear_42_2)"/>
<path d="M733.456 399.521C732.321 398.358 731.168 397.196 729.981 396.033C729.178 395.245 728.357 394.457 727.519 393.67C727.449 393.595 727.362 393.52 727.275 393.426C726.821 392.995 726.332 392.563 725.86 392.113C725.389 391.682 724.9 391.251 724.429 390.8C723.468 389.9 722.473 389.037 721.478 388.156C720.989 387.725 720.5 387.293 719.994 386.862C719.488 386.431 718.981 385.999 718.475 385.568C716.135 383.599 713.708 381.648 711.246 379.735C710.077 378.835 708.924 377.954 707.737 377.072C706.567 376.191 705.38 375.328 704.175 374.465C704.158 374.447 704.14 374.428 704.105 374.409C702.918 373.565 701.713 372.721 700.509 371.896C699.269 371.052 698.029 370.208 696.772 369.383C695.515 368.558 694.258 367.733 692.983 366.945C691.709 366.139 690.417 365.332 689.125 364.544C688.479 364.132 687.815 363.757 687.152 363.363C686.506 362.969 685.842 362.594 685.179 362.2C683.852 361.412 682.507 360.662 681.163 359.912C680.517 359.556 679.871 359.181 679.225 358.843C678.579 358.487 677.933 358.13 677.269 357.774C677.199 357.774 677.147 357.718 677.077 357.68C676.03 357.099 674.965 356.555 673.882 355.993C672.695 355.374 671.49 354.773 670.285 354.173C669.098 353.573 667.876 352.992 666.654 352.392C665.781 351.979 664.908 351.567 664.035 351.173C662.568 350.479 661.084 349.822 659.6 349.166C658.587 348.716 657.574 348.266 656.544 347.834C654.501 346.953 652.459 346.109 650.381 345.284C648.111 344.365 645.859 343.502 643.554 342.677C643.502 342.677 643.484 342.658 643.432 342.621C641.11 341.889 638.84 341.083 636.587 340.239C636.483 340.201 636.413 340.164 636.291 340.126C635.295 339.751 634.3 339.357 633.322 338.945C630.389 337.726 627.526 336.413 624.75 335.007C619.18 332.193 613.942 329.024 609.088 325.517C607.464 324.354 605.893 323.135 604.356 321.897C603.588 321.278 602.837 320.659 602.086 320.022C601.353 319.384 600.62 318.747 599.904 318.09C599.171 317.434 598.472 316.777 597.774 316.102C597.11 315.483 596.464 314.846 595.836 314.208C595.801 314.152 595.749 314.114 595.714 314.077C595.033 313.402 594.369 312.708 593.723 311.995C588.171 305.994 583.527 299.448 579.93 292.453C579.616 291.853 579.319 291.234 579.022 290.615C578.795 290.146 578.568 289.677 578.358 289.209C578.184 288.852 578.027 288.496 577.887 288.14C577.87 288.14 577.852 288.083 577.852 288.065C577.538 287.371 577.241 286.677 576.962 285.983C575.652 282.738 574.57 279.4 573.714 276.006C573.714 276.006 573.708 275.993 573.697 275.968V276.006C564.932 202.564 528.143 140.262 479.413 93.1142C569.14 131.035 643.886 200.97 691.447 289.809C709.658 323.848 723.905 360.662 733.456 399.521Z" fill="url(#paint2_linear_42_2)"/>
<path d="M467.487 553.194C433.16 582.863 392.199 604.074 347.362 613.827C329.239 617.765 310.469 619.828 291.263 619.828C136.69 619.828 11.2397 485.904 10 320.191C10.1746 281.239 17.1761 244.03 29.8171 209.841C29.9917 209.372 30.1663 208.904 30.3584 208.416C35.1075 196.282 40.6248 184.598 46.8406 173.383C84.9383 137.712 129.077 109.243 177.372 89.9828C147.777 137.825 130.544 195.232 130.544 256.971C130.544 318.71 146.624 372.178 174.403 419.007C174.735 419.664 175.102 420.283 175.468 420.92C177.302 424.146 179.275 427.316 181.352 430.354C181.405 430.448 181.457 430.523 181.51 430.579C181.667 430.804 181.824 431.029 181.981 431.235C182.121 431.46 182.278 431.667 182.435 431.873C182.487 431.948 182.54 432.023 182.61 432.117C184.129 434.405 185.665 436.655 187.236 438.887C188.022 439.993 188.79 441.081 189.576 442.169C193.557 447.683 197.73 453.028 202.043 458.223C253.549 520.149 328.435 559.102 411.807 559.102C430.873 559.102 449.486 557.057 467.487 553.194Z" fill="url(#paint3_linear_42_2)"/>
<path d="M770.295 634.006C770.295 637.213 770.225 640.401 770.085 643.59C770.016 645.24 769.928 646.872 769.824 648.484C769.736 649.872 769.631 651.241 769.527 652.61C745.711 699.796 713.585 741.487 675.313 775.488C672.519 777.964 669.69 780.402 666.81 782.784C660.506 788.072 654.046 793.173 647.411 798.05C646.521 798.706 645.631 799.362 644.74 800C644.985 799.119 645.229 798.218 645.456 797.281C651.742 772.469 655.321 746.494 655.845 719.694C655.862 717.894 655.897 716.112 655.897 714.312C655.914 713.768 655.914 713.224 655.914 712.699C655.914 670.108 648.232 629.449 634.229 592.24C633.182 589.521 632.134 586.802 631.017 584.12C621.885 561.54 610.379 540.291 596.865 520.749C595.887 519.324 594.909 517.955 593.914 516.548C594.246 514.86 594.543 513.154 594.839 511.447C594.857 511.353 594.874 511.241 594.892 511.147C595.119 509.74 595.346 508.315 595.555 506.909C595.573 506.815 595.573 506.74 595.59 506.646C595.643 506.308 595.695 505.971 595.747 505.633C595.887 504.583 596.027 503.533 596.149 502.483C596.254 501.751 596.358 501.02 596.428 500.27C596.463 500.044 596.481 499.819 596.516 499.594C596.638 498.488 596.76 497.363 596.865 496.237C596.882 496.2 596.882 496.181 596.882 496.144C597.022 494.775 597.144 493.387 597.249 491.999C597.354 490.742 597.441 489.486 597.511 488.229C597.528 487.892 597.563 487.573 597.581 487.254C597.581 487.067 597.581 486.86 597.616 486.673C597.633 486.485 597.633 486.298 597.633 486.11V486.073C597.703 485.285 597.738 484.497 597.755 483.71V483.635C597.825 482.153 597.877 480.69 597.912 479.209V479.002C597.912 478.815 597.912 478.646 597.912 478.458C597.947 476.92 597.982 475.401 597.982 473.864C597.982 463.736 597.301 453.74 595.974 443.951C595.765 442.3 595.52 440.669 595.241 439.018C594.944 436.993 594.595 434.986 594.211 432.979C593.565 429.36 592.797 425.796 591.959 422.233C591.382 419.851 590.789 417.507 590.16 415.163C590.055 414.713 589.951 414.3 589.828 413.887C589.828 413.812 589.776 413.737 589.759 413.662C598.628 415.463 607.341 417.788 615.809 420.601C624.277 423.396 632.536 426.715 640.497 430.466C640.899 430.654 641.3 430.841 641.702 431.048C650.292 435.136 658.568 439.731 666.513 444.813C682.384 454.997 696.893 467.075 709.709 480.765C724.655 496.744 737.296 514.879 747.091 534.665C748.802 538.116 750.425 541.641 751.962 545.186C763.765 572.417 770.277 602.461 770.277 634.006H770.295Z" fill="url(#paint4_linear_42_2)"/>
<path d="M650.364 345.285C649.264 346.41 648.129 347.46 646.941 348.473C646.505 348.848 646.051 349.223 645.597 349.561C645.405 349.729 645.213 349.879 645.021 350.011C644.672 350.292 644.322 350.555 643.956 350.798C643.659 351.042 643.345 351.248 643.03 351.455C642.664 351.717 642.297 351.98 641.913 352.205C641.686 352.374 641.459 352.524 641.214 352.655C641.197 352.674 641.162 352.692 641.145 352.692C640.656 353.011 640.149 353.311 639.643 353.593C639.032 353.949 638.403 354.287 637.775 354.605C637.583 354.718 637.391 354.812 637.181 354.906C636.675 355.149 636.169 355.393 635.662 355.618C634.981 355.918 634.3 356.2 633.602 356.481H633.584C632.904 356.762 632.205 357.006 631.507 357.231C629.377 357.925 627.212 358.45 624.994 358.825C623.51 359.069 622.008 359.219 620.489 359.313C619.739 359.35 618.97 359.369 618.202 359.369C617.94 359.369 617.696 359.369 617.451 359.35C617.207 359.35 616.963 359.35 616.701 359.332C616.404 359.332 616.107 359.313 615.81 359.294C615.304 359.294 614.815 359.238 614.309 359.181C613.348 359.088 612.405 358.975 611.428 358.825C610.432 358.656 609.455 358.45 608.477 358.225C608.145 358.15 607.831 358.075 607.517 357.981C606.399 357.7 605.317 357.362 604.234 356.987C603.675 356.8 603.082 356.575 602.523 356.368C602.436 356.331 602.366 356.293 602.279 356.256C601.249 355.843 600.253 355.393 599.258 354.906C599.101 354.83 598.944 354.737 598.769 354.662C598.49 354.53 598.211 354.38 597.931 354.212C596.36 353.386 594.841 352.449 593.374 351.436C592.99 351.173 592.623 350.911 592.257 350.648C592.047 350.498 591.855 350.348 591.646 350.179C590.65 349.411 589.673 348.623 588.712 347.779C587.892 347.047 587.088 346.297 586.32 345.51C585.901 345.078 585.482 344.647 585.081 344.216C584.871 344.009 584.679 343.784 584.469 343.559C584.26 343.353 584.068 343.109 583.876 342.884C583.492 342.415 583.108 341.946 582.723 341.477C582.322 341.009 581.973 340.558 581.589 340.071C581.117 339.49 580.698 338.908 580.297 338.308C580.297 338.308 580.209 338.195 580.174 338.177C580.139 338.12 580.122 338.083 580.104 338.045C580.052 337.97 580 337.914 579.965 337.839C579.528 337.22 579.109 336.601 578.708 335.964C577.887 334.651 577.101 333.319 576.386 331.932C576.159 331.519 575.949 331.106 575.739 330.675C575.425 330.019 575.111 329.4 574.832 328.762C574.535 328.106 574.255 327.468 573.993 326.812C573.714 326.174 573.452 325.536 573.208 324.88C572.963 324.205 572.719 323.567 572.492 322.892C572.335 322.442 572.195 322.011 572.055 321.579C571.916 321.148 571.811 320.754 571.671 320.323C571.654 320.266 571.636 320.229 571.619 320.173C571.479 319.704 571.34 319.235 571.217 318.766C571.165 318.56 571.113 318.335 571.06 318.11C570.99 317.885 570.938 317.66 570.886 317.434C570.798 317.116 570.728 316.778 570.641 316.459C570.589 316.234 570.554 315.99 570.501 315.765C570.449 315.522 570.397 315.297 570.344 315.053L570.292 314.753C570.17 314.265 570.082 313.759 569.995 313.252C569.943 312.952 569.89 312.652 569.838 312.352C569.838 312.315 569.821 312.277 569.821 312.24C569.716 311.639 569.629 311.021 569.559 310.402C569.524 310.233 569.506 310.083 569.489 309.914C569.471 309.839 569.471 309.764 569.454 309.689C569.384 309.258 569.332 308.808 569.297 308.357C569.244 307.926 569.209 307.476 569.192 307.045C569.157 306.688 569.122 306.351 569.105 305.994C569.087 305.844 569.07 305.713 569.07 305.563C569.017 305.094 569 304.625 568.982 304.138V304.044C568.93 303.069 568.913 302.094 568.913 301.118C568.913 300.387 568.93 299.674 568.948 298.98C568.965 298.324 569 297.686 569.035 297.049C569.157 294.836 569.384 292.641 569.716 290.485C569.733 290.391 569.751 290.278 569.768 290.185C569.855 289.678 569.925 289.209 570.03 288.722C570.082 288.365 570.152 288.009 570.24 287.653C570.397 286.846 570.571 286.04 570.763 285.252C570.798 285.102 570.833 284.952 570.868 284.802C570.938 284.502 571.008 284.221 571.095 283.958C571.235 283.396 571.392 282.814 571.567 282.252C571.567 282.195 571.584 282.158 571.601 282.101C571.671 281.858 571.741 281.614 571.811 281.389C571.986 280.789 572.178 280.189 572.387 279.588C572.405 279.551 572.422 279.495 572.44 279.457C572.509 279.251 572.562 279.045 572.649 278.857C572.684 278.726 572.719 278.613 572.771 278.482C572.789 278.426 572.806 278.388 572.824 278.332C573.103 277.525 573.4 276.775 573.714 276.006C574.57 279.401 575.652 282.739 576.962 285.984C577.241 286.678 577.538 287.371 577.852 288.065C577.852 288.084 577.87 288.122 577.887 288.14C578.027 288.497 578.184 288.853 578.358 289.209C578.568 289.678 578.795 290.147 579.022 290.616C579.319 291.235 579.616 291.854 579.93 292.454C583.527 299.449 588.171 305.994 593.723 311.996C594.369 312.69 595.033 313.402 595.714 314.077C595.749 314.115 595.801 314.152 595.836 314.209C596.464 314.846 597.111 315.484 597.774 316.103C598.472 316.797 599.171 317.453 599.904 318.091C600.62 318.747 601.353 319.385 602.087 320.023C602.837 320.66 603.588 321.279 604.356 321.898C605.893 323.173 607.464 324.374 609.088 325.518C613.942 329.025 619.18 332.194 624.75 335.007C627.526 336.433 630.389 337.745 633.323 338.946C634.3 339.377 635.296 339.771 636.291 340.146C636.396 340.183 636.483 340.221 636.588 340.258C638.84 341.102 641.11 341.909 643.432 342.64C643.484 342.678 643.502 342.696 643.554 342.696C645.859 343.522 648.111 344.384 650.364 345.285Z" fill="#3C3C3B"/>
<path d="M770.086 643.608C770.226 640.42 770.296 637.232 770.296 634.025C770.296 602.48 763.783 572.436 751.98 545.205C750.444 541.66 748.82 538.134 747.109 534.684C737.314 514.898 724.673 496.763 709.727 480.784C696.912 467.093 682.402 455.016 666.531 444.832C658.587 439.731 650.311 435.136 641.721 431.048C641.319 430.841 640.917 430.654 640.516 430.466C632.554 426.715 624.296 423.396 615.827 420.602C607.359 417.788 598.647 415.482 589.777 413.681C589.777 413.681 589.742 413.681 589.725 413.644C588.59 412.95 587.437 412.256 586.32 411.524C585.534 411.037 584.766 410.53 583.998 410.005C583.474 409.668 582.95 409.311 582.427 408.955C581.466 408.28 580.523 407.624 579.598 406.93C578.62 406.198 577.642 405.467 576.682 404.717C576.123 404.285 575.565 403.854 575.006 403.385C574.936 403.329 574.884 403.273 574.814 403.235C573.889 402.485 572.963 401.716 572.055 400.928C571.095 400.103 570.135 399.24 569.209 398.378C568.319 397.571 567.446 396.746 566.608 395.902C566.189 395.49 565.77 395.077 565.368 394.683C564.844 394.158 564.338 393.633 563.849 393.108C563.814 393.052 563.762 393.014 563.727 392.977C563.308 392.526 562.889 392.076 562.47 391.607C562.068 391.157 561.649 390.689 561.248 390.238C560.619 389.545 560.025 388.832 559.432 388.119C558.96 387.575 558.506 387.013 558.07 386.45C557.686 385.962 557.284 385.475 556.917 384.968C556.586 384.556 556.271 384.125 555.957 383.693C555.486 383.074 555.032 382.455 554.595 381.818C554.071 381.068 553.565 380.317 553.059 379.567C552.5 378.723 551.959 377.879 551.435 377.017C550.946 376.21 550.457 375.404 550.003 374.579C549.532 373.753 549.095 372.947 548.659 372.122C548.659 372.103 548.641 372.084 548.624 372.066C548.205 371.24 547.786 370.396 547.384 369.571C546.965 368.727 546.581 367.865 546.214 367.021C545.918 366.364 545.656 365.727 545.394 365.07C545.237 364.695 545.097 364.32 544.94 363.926C544.678 363.232 544.416 362.538 544.172 361.826C543.962 361.226 543.753 360.607 543.561 359.988C543.526 359.894 543.508 359.8 543.473 359.706C543.351 359.331 543.229 358.956 543.124 358.581C543.089 358.469 543.054 358.356 543.019 358.244C542.565 356.706 542.181 355.149 541.849 353.593C541.692 352.861 541.553 352.149 541.413 351.417C541.378 351.267 541.361 351.098 541.326 350.948C541.186 350.104 541.046 349.26 540.942 348.416C540.924 348.341 540.924 348.248 540.907 348.173C540.819 347.554 540.75 346.935 540.697 346.297C540.697 346.26 540.68 346.203 540.68 346.166C540.662 345.96 540.645 345.753 540.627 345.547C540.61 345.397 540.592 345.228 540.592 345.059C540.592 345.022 540.592 344.966 540.575 344.928C540.523 344.272 540.47 343.615 540.453 342.959C540.453 342.903 540.435 342.828 540.453 342.753C540.453 342.678 540.453 342.603 540.435 342.528C540.4 341.721 540.383 340.915 540.383 340.108C540.383 339.564 540.383 339.021 540.4 338.495C540.435 337.408 540.47 336.32 540.54 335.251C540.592 334.707 540.61 334.182 540.662 333.638C540.802 332.025 541.011 330.45 541.256 328.856C541.343 328.331 541.43 327.805 541.518 327.28C541.623 326.718 541.71 326.136 541.832 325.593C541.954 325.03 542.059 324.486 542.199 323.923C542.269 323.586 542.338 323.248 542.443 322.911C542.757 321.598 543.107 320.285 543.491 318.991C543.648 318.447 543.822 317.903 543.997 317.378C544.137 316.928 544.294 316.478 544.451 316.028C544.451 315.99 544.468 315.953 544.486 315.915C544.783 315.034 545.115 314.171 545.446 313.308C545.656 312.727 545.883 312.164 546.127 311.602C546.267 311.264 546.424 310.927 546.564 310.589C546.721 310.214 546.895 309.82 547.07 309.445C547.419 308.639 547.803 307.851 548.187 307.063C548.275 306.876 548.379 306.688 548.467 306.501C548.729 305.976 548.991 305.469 549.27 304.944C549.305 304.869 549.34 304.794 549.392 304.719C549.776 304.006 550.16 303.275 550.579 302.581C550.737 302.3 550.894 302 551.068 301.718C551.383 301.174 551.697 300.649 552.029 300.124C552.5 299.374 552.971 298.643 553.443 297.911C553.652 297.611 553.844 297.311 554.054 296.992C554.595 296.205 555.137 295.417 555.713 294.648C555.887 294.423 556.062 294.179 556.237 293.935C556.743 293.241 557.267 292.548 557.808 291.872C558.227 291.329 558.663 290.803 559.1 290.278C559.536 289.753 559.973 289.228 560.444 288.703C560.776 288.309 561.108 287.915 561.457 287.54C561.614 287.353 561.789 287.165 561.963 286.978C562.138 286.79 562.313 286.602 562.487 286.415C563.081 285.74 563.692 285.102 564.321 284.464C564.844 283.939 565.368 283.395 565.892 282.889C566.032 282.758 566.171 282.608 566.328 282.458C566.887 281.933 567.446 281.389 568.022 280.864C568.389 280.526 568.755 280.188 569.139 279.851C569.506 279.532 569.873 279.194 570.239 278.876C571.357 277.882 572.509 276.906 573.697 275.969C573.697 275.969 573.702 275.981 573.714 276.006C573.4 276.775 573.103 277.525 572.824 278.313C572.824 278.313 572.789 278.426 572.771 278.482C572.719 278.613 572.684 278.726 572.649 278.857C572.562 279.044 572.509 279.251 572.439 279.438C572.439 279.438 572.404 279.551 572.387 279.588C572.177 280.188 571.985 280.789 571.811 281.389C571.741 281.614 571.671 281.858 571.601 282.101C571.584 282.158 571.566 282.195 571.566 282.251C571.392 282.814 571.235 283.395 571.095 283.958C571.008 284.221 570.938 284.502 570.868 284.783C570.833 284.952 570.798 285.102 570.763 285.252C570.571 286.04 570.397 286.846 570.239 287.653C570.152 288.009 570.082 288.365 570.03 288.722C569.925 289.209 569.855 289.678 569.768 290.184C569.768 290.278 569.733 290.391 569.716 290.485C569.384 292.641 569.157 294.836 569.035 297.049C569 297.686 568.965 298.324 568.947 298.98C568.93 299.674 568.912 300.387 568.912 301.099C568.912 302.093 568.93 303.069 568.982 304.044V304.138C569 304.625 569.017 305.094 569.07 305.563C569.07 305.713 569.087 305.844 569.105 305.994C569.105 306.351 569.139 306.707 569.174 307.063C569.209 307.495 569.244 307.926 569.297 308.357C569.331 308.807 569.384 309.258 569.454 309.689C569.471 309.764 569.471 309.839 569.489 309.914C569.506 310.083 569.524 310.233 569.558 310.402C569.628 311.02 569.716 311.639 569.82 312.239C569.82 312.277 569.838 312.315 569.838 312.352C569.89 312.652 569.943 312.952 569.995 313.252C570.082 313.759 570.17 314.265 570.292 314.753L570.344 315.034C570.397 315.296 570.449 315.54 570.484 315.784C570.536 316.009 570.589 316.234 570.641 316.459C570.728 316.778 570.798 317.116 570.885 317.434C570.938 317.659 570.99 317.885 571.06 318.11C571.112 318.335 571.165 318.56 571.217 318.766C571.339 319.235 571.479 319.704 571.619 320.173C571.619 320.229 571.654 320.266 571.671 320.323C571.776 320.735 571.916 321.148 572.055 321.56C572.195 322.01 572.335 322.442 572.492 322.873C572.701 323.567 572.946 324.205 573.208 324.861C573.435 325.536 573.697 326.193 573.976 326.83C574.238 327.487 574.517 328.124 574.831 328.762C575.111 329.4 575.425 330.019 575.739 330.656C575.949 331.106 576.158 331.519 576.385 331.931C577.101 333.319 577.887 334.651 578.708 335.964C579.109 336.601 579.528 337.22 579.965 337.82C579.965 337.82 580.052 337.97 580.104 338.045C580.122 338.083 580.139 338.12 580.174 338.177C580.209 338.214 580.244 338.27 580.296 338.308C580.698 338.908 581.117 339.489 581.588 340.071C581.938 340.558 582.304 341.027 582.706 341.496C583.073 341.965 583.457 342.434 583.876 342.884C584.068 343.109 584.26 343.353 584.469 343.559C584.679 343.784 584.871 344.009 585.08 344.215C585.482 344.666 585.901 345.097 586.32 345.528C587.088 346.316 587.891 347.066 588.712 347.798C589.672 348.641 590.65 349.429 591.645 350.198C591.855 350.367 592.047 350.517 592.256 350.667C592.623 350.929 592.99 351.192 593.374 351.455C594.841 352.467 596.36 353.405 597.931 354.23C598.21 354.399 598.49 354.549 598.769 354.68C598.944 354.755 599.101 354.849 599.258 354.924C600.253 355.412 601.248 355.862 602.279 356.274C602.366 356.312 602.436 356.349 602.523 356.387C603.082 356.593 603.658 356.818 604.234 357.006C605.317 357.381 606.399 357.719 607.517 358C607.831 358.094 608.145 358.169 608.477 358.244C609.455 358.469 610.432 358.675 611.428 358.844C612.388 358.994 613.348 359.106 614.308 359.2C614.815 359.256 615.304 359.294 615.81 359.313C616.107 359.331 616.404 359.35 616.7 359.35C616.962 359.369 617.207 359.369 617.451 359.369C617.696 359.388 617.94 359.388 618.202 359.388C618.97 359.388 619.738 359.369 620.489 359.313C622.008 359.238 623.51 359.088 624.994 358.825C627.229 358.487 629.394 357.944 631.507 357.231C632.205 357.006 632.903 356.762 633.584 356.5H633.602C634.3 356.218 634.981 355.937 635.662 355.618C636.186 355.393 636.692 355.168 637.181 354.905C637.391 354.812 637.583 354.718 637.775 354.605C638.403 354.305 639.032 353.968 639.643 353.593C640.149 353.33 640.656 353.03 641.144 352.692C641.162 352.692 641.197 352.674 641.214 352.655C641.459 352.524 641.686 352.374 641.913 352.205C642.297 351.98 642.663 351.717 643.03 351.455C643.344 351.248 643.659 351.042 643.956 350.798C644.322 350.554 644.671 350.292 645.021 350.011C645.213 349.879 645.405 349.729 645.597 349.56C646.051 349.223 646.505 348.848 646.941 348.473C648.128 347.46 649.263 346.41 650.363 345.284H650.381C652.459 346.11 654.501 346.954 656.544 347.835C657.574 348.266 658.587 348.716 659.6 349.167C661.084 349.823 662.568 350.479 664.034 351.173C664.907 351.567 665.78 351.98 666.653 352.392C667.876 352.992 669.098 353.574 670.285 354.174C671.49 354.774 672.695 355.374 673.882 355.993C674.964 356.556 676.03 357.1 677.077 357.681C677.147 357.719 677.199 357.756 677.269 357.775C677.933 358.131 678.579 358.487 679.225 358.844C679.871 359.181 680.517 359.556 681.163 359.913C682.507 360.663 683.852 361.413 685.179 362.201C685.842 362.595 686.505 362.97 687.152 363.364C687.815 363.757 688.478 364.132 689.125 364.545C690.417 365.333 691.709 366.139 692.983 366.946C694.258 367.752 695.532 368.559 696.772 369.384C698.029 370.209 699.269 371.053 700.508 371.897C701.713 372.722 702.918 373.566 704.105 374.41C704.14 374.429 704.158 374.447 704.175 374.466C705.38 375.329 706.567 376.191 707.737 377.073C708.924 377.954 710.077 378.836 711.246 379.736C713.708 381.649 716.135 383.599 718.475 385.569C718.981 386 719.487 386.431 719.994 386.863C720.5 387.294 720.989 387.725 721.478 388.157C722.473 389.038 723.468 389.901 724.429 390.801C724.9 391.251 725.389 391.682 725.86 392.114C726.332 392.564 726.821 392.995 727.275 393.427C727.362 393.52 727.449 393.595 727.519 393.67C728.357 394.458 729.178 395.246 729.981 396.033C731.168 397.196 732.321 398.359 733.455 399.522H733.473C734.747 401.041 736.005 402.541 737.244 404.042C743.757 411.843 749.92 419.814 756.084 428.178C756.136 428.291 756.206 428.385 756.276 428.478V428.647C756.538 429.022 756.782 429.36 757.009 429.716C757.044 429.716 757.044 429.716 757.044 429.754C775.744 456.028 791.685 484.741 804.378 515.329C806.333 519.999 808.219 524.744 810 529.507C802.527 573.299 788.489 615.158 769.318 653.023C769.423 651.654 769.755 649.872 769.825 648.503C769.929 646.89 770.017 645.259 770.086 643.608Z" fill="url(#paint5_linear_42_2)"/>
</g>
<defs>
<filter id="filter0_d_42_2" x="0" y="0" width="810" height="810" filterUnits="userSpaceOnUse" color-interpolation-filters="sRGB">
<feFlood flood-opacity="0" result="BackgroundImageFix"/>
<feColorMatrix in="SourceAlpha" type="matrix" values="0 0 0 0 0 0 0 0 0 0 0 0 0 0 0 0 0 0 127 0" result="hardAlpha"/>
<feOffset dx="-5" dy="5"/>
<feGaussianBlur stdDeviation="2.5"/>
<feComposite in2="hardAlpha" operator="out"/>
<feColorMatrix type="matrix" values="0 0 0 0 0 0 0 0 0 0 0 0 0 0 0 0 0 0 0.25 0"/>
<feBlend mode="normal" in2="BackgroundImageFix" result="effect1_dropShadow_42_2"/>
<feBlend mode="normal" in="SourceGraphic" in2="effect1_dropShadow_42_2" result="shape"/>
</filter>
<linearGradient id="paint0_linear_42_2" x1="725.79" y1="198.814" x2="36.6767" y2="201.935" gradientUnits="userSpaceOnUse">
<stop stop-color="#36A9E1"/>
<stop offset="0.54" stop-color="#298CCC"/>
<stop offset="1" stop-color="#1D71B8"/>
</linearGradient>
<linearGradient id="paint1_linear_42_2" x1="175.799" y1="168.094" x2="599.594" y2="381.912" gradientUnits="userSpaceOnUse">
<stop stop-color="#36A9E1"/>
<stop offset="0.54" stop-color="#298CCC"/>
<stop offset="1" stop-color="#1D71B8"/>
</linearGradient>
<linearGradient id="paint2_linear_42_2" x1="548.275" y1="193.168" x2="746.977" y2="364.32" gradientUnits="userSpaceOnUse">
<stop stop-color="#36A9E1"/>
<stop offset="0.54" stop-color="#298CCC"/>
<stop offset="1" stop-color="#1D71B8"/>
</linearGradient>
<linearGradient id="paint3_linear_42_2" x1="280.735" y1="50.8052" x2="218.241" y2="537.681" gradientUnits="userSpaceOnUse">
<stop stop-color="#36A9E1"/>
<stop offset="0.54" stop-color="#298CCC"/>
<stop offset="1" stop-color="#1D71B8"/>
</linearGradient>
<linearGradient id="paint4_linear_42_2" x1="628.502" y1="485.322" x2="704.496" y2="661.508" gradientUnits="userSpaceOnUse">
<stop stop-color="#FFDB93"/>
<stop offset="1" stop-color="#F5B159"/>
</linearGradient>
<linearGradient id="paint5_linear_42_2" x1="691.883" y1="479.584" x2="459.941" y2="330.735" gradientUnits="userSpaceOnUse">
<stop stop-color="#FFDB93"/>
<stop offset="1" stop-color="#F5B159"/>
</linearGradient>
</defs>
</svg>
